<svg viewBox="0 0 64 64" xmlns="http://www.w3.org/2000/svg"><circle cx="41" cy="20" fill="#e8d2a8" r="3"/><path d="m41 23.5a3.5 3.5 0 1 1 3.5-3.5 3.5 3.5 0 0 1 -3.5 3.5zm0-6a2.5 2.5 0 1 0 2.5 2.5 2.5 2.5 0 0 0 -2.5-2.5z" fill="#212a41"/><path d="m17 11v6a3 3 0 0 0 0 6v2a8 8 0 0 0 8 8h8a8 8 0 0 0 8-8v-14a6 6 0 0 0 -6-6h-12a6 6 0 0 0 -6 6z" fill="#e0c8a4"/><path d="m33 33.5h-8a8.51 8.51 0 0 1 -8.5-8.5v-1.536a3.5 3.5 0 0 1 0-6.928v-5.536a6.508 6.508 0 0 1 6.5-6.5h12a6.508 6.508 0 0 1 6.5 6.5v14a8.51 8.51 0 0 1 -8.5 8.5zm-10-28a5.506 5.506 0 0 0 -5.5 5.5v6a.5.5 0 0 1 -.5.5 2.5 2.5 0 0 0 0 5 .5.5 0 0 1 .5.5v2a7.508 7.508 0 0 0 7.5 7.5h8a7.508 7.508 0 0 0 7.5-7.5v-14a5.506 5.506 0 0 0 -5.5-5.5z" fill="#212a41"/><path d="m33 31.5a.5.5 0 0 1 0-1 5.506 5.506 0 0 0 5.5-5.5v-10a.5.5 0 0 1 1 0v10a6.508 6.508 0 0 1 -6.5 6.5z" fill="#c2aa86"/><path d="m25 31.5a6.508 6.508 0 0 1 -6.5-6.5.5.5 0 0 1 1 0 5.506 5.506 0 0 0 5.5 5.5.5.5 0 0 1 0 1z" fill="#fee6c2"/><path d="m17 23.5a3.5 3.5 0 0 1 -2.475-5.975 3.585 3.585 0 0 1 4.95 0 .5.5 0 0 1 -.707.707 2.562 2.562 0 0 0 -3.536 0 2.5 2.5 0 0 0 0 3.536 2.562 2.562 0 0 0 3.536 0 .5.5 0 0 1 .707.707 3.477 3.477 0 0 1 -2.475 1.025z" fill="#212a41"/><path d="m23 5h14a6 6 0 0 1 6 6v2a0 0 0 0 1 0 0h-26a0 0 0 0 1 0 0v-2a6 6 0 0 1 6-6z" fill="#f9ac2f"/><path d="m43 13.5h-26a.5.5 0 0 1 -.5-.5v-2a6.508 6.508 0 0 1 6.5-6.5h14a6.508 6.508 0 0 1 6.5 6.5v2a.5.5 0 0 1 -.5.5zm-25.5-1h25v-1.5a5.506 5.506 0 0 0 -5.5-5.5h-14a5.506 5.506 0 0 0 -5.5 5.5z" fill="#212a41"/><path d="m41 11.5a.5.5 0 0 1 -.5-.5 3.5 3.5 0 0 0 -3.5-3.5.5.5 0 0 1 0-1 4.505 4.505 0 0 1 4.5 4.5.5.5 0 0 1 -.5.5z" fill="#db8e11"/><path d="m18 8h3a0 0 0 0 1 0 0v5a4 4 0 0 1 -4 4h-3a0 0 0 0 1 0 0v-5a4 4 0 0 1 4-4z" fill="#db8e11"/><path d="m17 17.5h-3a.5.5 0 0 1 -.5-.5v-5a4.505 4.505 0 0 1 4.5-4.5h3a.5.5 0 0 1 .5.5v5a4.505 4.505 0 0 1 -4.5 4.5zm-2.5-1h2.5a3.5 3.5 0 0 0 3.5-3.5v-4.5h-2.5a3.5 3.5 0 0 0 -3.5 3.5z" fill="#212a41"/><path d="m16 15.5a.5.5 0 0 1 -.5-.5v-3a2.5 2.5 0 0 1 2.5-2.5h1a.5.5 0 0 1 0 1h-1a1.5 1.5 0 0 0 -1.5 1.5v3a.5.5 0 0 1 -.5.5z" fill="#f9ac2f"/><path d="m39 40h-4l2-4z" fill="#e0e0e0"/><path d="m39 40.5h-4a.5.5 0 0 1 -.447-.724l2-4a.521.521 0 0 1 .894 0l2 4a.5.5 0 0 1 -.447.724zm-3.191-1h2.382l-1.191-2.382z" fill="#212a41"/><path d="m35 40h-1v-4h3z" fill="#c2c2c2"/><path d="m35 40.5h-1a.5.5 0 0 1 -.5-.5v-4a.5.5 0 0 1 .5-.5h3a.5.5 0 0 1 .447.724l-2 4a.5.5 0 0 1 -.447.276zm-.5-1h.191l1.5-3h-1.691z" fill="#212a41"/><path d="m34 40h-18a12 12 0 0 0 -12 12v7h42v-7a12 12 0 0 0 -12-12z" fill="#c2c2c2"/><path d="m46 59.5h-42a.5.5 0 0 1 -.5-.5v-7a12.514 12.514 0 0 1 12.5-12.5h18a12.514 12.514 0 0 1 12.5 12.5v7a.5.5 0 0 1 -.5.5zm-41.5-1h41v-6.5a11.513 11.513 0 0 0 -11.5-11.5h-18a11.513 11.513 0 0 0 -11.5 11.5z" fill="#212a41"/><path d="m12 52v7h42v-7a12 12 0 0 0 -12-12h-18a12 12 0 0 0 -12 12z" fill="#e0e0e0"/><path d="m54 59.5h-42a.5.5 0 0 1 -.5-.5v-7a12.514 12.514 0 0 1 12.5-12.5h18a12.514 12.514 0 0 1 12.5 12.5v7a.5.5 0 0 1 -.5.5zm-41.5-1h41v-6.5a11.513 11.513 0 0 0 -11.5-11.5h-18a11.513 11.513 0 0 0 -11.5 11.5z" fill="#212a41"/><path d="m6 57.5a.5.5 0 0 1 -.5-.5v-5a10.532 10.532 0 0 1 8.414-10.292.5.5 0 0 1 .2.98 9.529 9.529 0 0 0 -7.614 9.312v5a.5.5 0 0 1 -.5.5z" fill="#e0e0e0"/><path d="m24 33h10v7h-10z" fill="#e8d2a8"/><path d="m34 40.5h-10a.5.5 0 0 1 -.5-.5v-7a.5.5 0 0 1 .5-.5h10a.5.5 0 0 1 .5.5v7a.5.5 0 0 1 -.5.5zm-9.5-1h9v-6h-9z" fill="#212a41"/><path d="m14 57.5a.5.5 0 0 1 -.5-.5v-5a10.512 10.512 0 0 1 10.5-10.5h.6a.5.5 0 1 1 0 1h-.6a9.511 9.511 0 0 0 -9.5 9.5v5a.5.5 0 0 1 -.5.5z" fill="#fefefe"/><path d="m52 57.5a.5.5 0 0 1 -.5-.5v-5a9.511 9.511 0 0 0 -9.5-9.5h-.6a.5.5 0 0 1 0-1h.6a10.512 10.512 0 0 1 10.5 10.5v5a.5.5 0 0 1 -.5.5z" fill="#c2c2c2"/><path d="m31 40h-4l2-4z" fill="#e0e0e0"/><path d="m31 40.5h-4a.5.5 0 0 1 -.447-.724l2-4a.521.521 0 0 1 .894 0l2 4a.5.5 0 0 1 -.447.724zm-3.191-1h2.382l-1.191-2.382z" fill="#212a41"/><path d="m27 40h-8l2-4h8z" fill="#c2c2c2"/><g fill="#212a41"><path d="m27 40.5h-8a.5.5 0 0 1 -.447-.724l2-4a.5.5 0 0 1 .447-.276h8a.5.5 0 0 1 .447.724l-2 4a.5.5 0 0 1 -.447.276zm-7.191-1h6.882l1.5-3h-6.882z"/><path d="m20 59.5a.5.5 0 0 1 -.5-.5v-6a.5.5 0 0 1 1 0v6a.5.5 0 0 1 -.5.5z"/><path d="m46 59.5a.5.5 0 0 1 -.5-.5v-6a.5.5 0 0 1 1 0v6a.5.5 0 0 1 -.5.5z"/><path d="m33 59.5a.5.5 0 0 1 -.5-.5v-13a.5.5 0 0 1 1 0v13a.5.5 0 0 1 -.5.5z"/></g><path d="m31 40 2 6 2-6z" fill="#e8d2a8"/><path d="m33 46.5a.5.5 0 0 1 -.474-.342l-2-6a.5.5 0 0 1 .474-.658h4a.5.5 0 0 1 .474.658l-2 6a.5.5 0 0 1 -.474.342zm-1.306-6 1.306 3.919 1.306-3.919z" fill="#212a41"/><path d="m57 49h-16l-3-7 3-7h16z" fill="#99a2b9"/><path d="m57 49.5h-16a.5.5 0 0 1 -.459-.3l-3-7a.491.491 0 0 1 0-.394l3-7a.5.5 0 0 1 .459-.306h16a.5.5 0 0 1 .5.5v14a.5.5 0 0 1 -.5.5zm-15.67-1h15.17v-13h-15.17l-2.786 6.5z" fill="#212a41"/><path d="m60 49h-16l-3-7 3-7h16z" fill="#b7c0d7"/><path d="m60 49.5h-16a.5.5 0 0 1 -.459-.3l-3-7a.491.491 0 0 1 0-.394l3-7a.5.5 0 0 1 .459-.306h16a.5.5 0 0 1 .5.5v14a.5.5 0 0 1 -.5.5zm-15.67-1h15.17v-13h-15.17l-2.786 6.5z" fill="#212a41"/><path d="m47 46.5a2.5 2.5 0 0 1 -2.5-2.5.5.5 0 0 1 1 0 1.5 1.5 0 0 0 3 0v-5.5h-1.5a.5.5 0 0 1 0-1h2a.5.5 0 0 1 .5.5v6a2.5 2.5 0 0 1 -2.5 2.5z" fill="#212a41"/><path d="m56 46.5a.5.5 0 0 1 -.4-.2l-3-4a.5.5 0 0 1 -.1-.3v4a.5.5 0 0 1 -1 0v-8a.5.5 0 0 1 .5-.5h2a2.5 2.5 0 0 1 0 5l2.4 3.2a.5.5 0 0 1 -.4.8zm-3.5-8v3.5a.5.5 0 0 1 .5-.5h1a1.5 1.5 0 0 0 0-3z" fill="#212a41"/><path d="m58 47.5a.5.5 0 0 1 -.5-.5v-10a.5.5 0 0 1 1 0v10a.5.5 0 0 1 -.5.5z" fill="#99a2b9"/></svg>