<svg id="Capa_1" enable-background="new 0 0 511.947 511.947" height="512" viewBox="0 0 511.947 511.947" width="512" xmlns="http://www.w3.org/2000/svg"><g id="XMLID_1038_"><g id="XMLID_2276_"><path id="XMLID_435_" d="m208.235 301.947h-47.402c-64.539 0-116.859 52.319-116.859 116.859v83.141h212 212v-83.141c0-64.539-52.319-116.859-116.859-116.859h-48.733z" fill="#91def5"/></g><g id="XMLID_2424_"><path id="XMLID_4_" d="m467.974 418.806c0-37.295-17.471-70.509-44.675-91.905l-1.942 2.441-43.634 60.495v112.111h90.25v-83.142z" fill="#fff"/></g><g id="XMLID_2416_"><path d="m43.974 418.806c0-37.295 17.471-70.509 44.675-91.905l1.942 2.441 43.634 60.495v112.111h-90.25v-83.142z" fill="#fff"/></g><g id="XMLID_2423_"><path d="m335.974 97.635v91.653c0 44.183-35.817 80-80 80-44.183 0-80-35.817-80-80v-91.653z" fill="#f2bb88"/></g><g id="XMLID_2457_"><path id="XMLID_9_" d="m244.972 90.593-28.998 21.035-40 34.058-24.333-24.363v-61.112c0-22.237 18.027-40.264 40.264-40.264 8.495 0 16.772 2.687 23.648 7.676l16.345 11.861z" fill="#8690a6"/></g><g id="XMLID_2358_"><path d="m295.974 260.614v43.833c0 22.091-17.909 40-40 40-22.091 0-40-17.909-40-40v-43.833" fill="#f2bb88"/></g><g id="XMLID_1975_"><path id="XMLID_10_" d="m376.081 43.193c-19.595 3.017-39.579-1.992-55.435-13.893l-12.938-9.711c-20.274-15.217-48.874-12.11-65.407 7.107-17.378 20.2-17.488 50.038-.259 70.365 15.799 18.639 38.996 29.386 63.43 29.386 42.755 0 77.415-34.66 77.415-77.415.001-3.621-3.227-6.39-6.806-5.839z" fill="#8690a6"/></g><g id="XMLID_449_"><path id="XMLID_452_" d="m351.115 291.947h-45.142v-27.863c24.103-16.165 40-43.658 40-74.796v-62.808c27.863-14.63 46.914-43.853 46.914-77.447 0-4.647-2.023-9.048-5.551-12.074s-8.189-4.357-12.777-3.649h-.001c-16.827 2.589-34.292-1.785-47.91-12.007l-12.938-9.71c-24.396-18.313-59.094-14.545-78.99 8.582-1.604 1.865-3.07 3.803-4.428 5.789l-8.867-6.434c-8.639-6.269-18.847-9.583-29.521-9.583-27.716 0-50.264 22.548-50.264 50.264v61.111c0 2.65 1.052 5.192 2.925 7.067l21.408 21.434v39.465c0 31.138 15.897 58.631 40 74.796v27.863h-45.142c-69.95 0-126.858 56.908-126.858 126.858v83.142c0 5.522 4.478 10 10 10h167c5.522 0 10-4.478 10-10s-4.478-10-10-10h-66.749v-102.11c0-2.1-.661-4.146-1.89-5.85l-39.562-54.849c16.727-10.868 36.667-17.191 58.059-17.191h45.706c3.629 24.025 24.415 42.5 49.436 42.5s45.807-18.475 49.436-42.5h45.706c21.392 0 41.332 6.323 58.059 17.191l-39.562 54.849c-1.229 1.703-1.89 3.75-1.89 5.85v102.11h-66.749c-5.522 0-10 4.478-10 10s4.478 10 10 10h167c5.522 0 10-4.478 10-10v-83.142c.001-69.949-56.907-126.858-126.858-126.858zm-226.89 101.121v98.88h-70.251v-73.142c0-30.346 12.716-57.778 33.098-77.248zm154.628-373.085c7.994 0 16.037 2.49 22.853 7.605l12.938 9.71c16.585 12.447 37.514 18.301 58.087 16.379-2.394 35.015-31.645 62.77-67.257 62.77-21.537 0-41.876-9.422-55.802-25.852-14.134-16.676-14.045-40.806.212-57.377 7.494-8.711 18.187-13.235 28.969-13.235zm-117.212 40.228c0-16.688 13.576-30.264 30.264-30.264 6.427 0 12.573 1.995 17.774 5.77l11.93 8.657c-4.576 15.87-2.858 33.075 5.167 47.95l-50.05 39.963-15.086-15.104v-56.972zm24.333 129.077v-38.791l52.815-42.17c17.48 17.942 41.433 28.121 66.684 28.121 7.059 0 13.923-.847 20.501-2.434v55.275c0 38.598-31.402 70-70 70s-70-31.403-70-70.001zm70 145.159c-16.542 0-30-13.458-30-30v-30.307c9.388 3.329 19.485 5.148 30 5.148s20.612-1.819 30-5.148v30.307c0 16.542-13.458 30-30 30zm202 157.5h-70.251v-98.88l37.153-51.51c20.382 19.47 33.098 46.902 33.098 77.248z"/><path id="XMLID_458_" d="m255.974 232.284c8.369 0 16.236-3.259 22.153-9.176 3.905-3.905 3.905-10.237 0-14.142-3.906-3.905-10.238-3.905-14.143 0-2.14 2.14-4.984 3.318-8.011 3.318s-5.871-1.178-8.011-3.318c-3.904-3.905-10.234-3.905-14.143 0-3.905 3.905-3.905 10.237 0 14.142 5.918 5.917 13.786 9.176 22.155 9.176z"/><path id="XMLID_459_" d="m255.974 491.947c-2.63 0-5.21 1.069-7.07 2.93s-2.93 4.44-2.93 7.07 1.069 5.21 2.93 7.069c1.86 1.86 4.44 2.931 7.07 2.931s5.21-1.07 7.069-2.931c1.86-1.859 2.931-4.439 2.931-7.069s-1.07-5.21-2.931-7.07c-1.859-1.86-4.439-2.93-7.069-2.93z"/></g></g></svg>