<?xml version="1.0" encoding="utf-8"?>
<!-- Generator: Adobe Illustrator 26.0.1, SVG Export Plug-In . SVG Version: 6.00 Build 0)  -->
<svg version="1.1" id="Layer_1" xmlns="http://www.w3.org/2000/svg" xmlns:xlink="http://www.w3.org/1999/xlink" x="0px" y="0px"
	 viewBox="0 0 163.9 48.2" style="enable-background:new 0 0 163.9 48.2;" xml:space="preserve">
<style type="text/css">
	.st0{fill:#0F103B;}
	.st1{fill:#F79328;}
</style>
<g>
	<g>
		<path class="st0" d="M35.1,12.2L23.2,3.9L17.9,0L0.3,12.2l17.4,12.2L35.1,12.2z M14.1,6.5L17.8,4l3.6,2.6l8.1,5.7l-11.7,8.2
			L6,12.2L14.1,6.5z"/>
		<polygon class="st0" points="32.2,18.4 32.2,27.9 27,33.8 27,38.5 23.1,40.9 23.1,29.5 27.1,26.7 27.1,22.7 19.8,27.9 19.8,42.9 
			17.4,44.4 15.6,43.2 15.6,27.9 8.3,22.7 8.3,26.6 12.3,29.5 12.3,41.1 8.4,38.6 8.4,33.8 3.2,27.9 3.2,18.4 0,16 0,29.1 5.2,35.1 
			5.2,40.3 17.3,48.2 30.2,40.4 30.2,35.1 35.4,29.1 35.4,16 		"/>
	</g>
	<g>
		<g>
			<g>
				<path class="st0" d="M46.1,26.3V31h-3.3V17.2h5.5c1.1,0,2,0.2,2.8,0.6c0.8,0.4,1.4,0.9,1.9,1.7c0.4,0.7,0.7,1.5,0.7,2.4
					c0,1.3-0.5,2.4-1.4,3.2c-1,0.8-2.3,1.2-4,1.2H46.1z M46.1,23.8h2.2c0.6,0,1.1-0.2,1.5-0.5c0.3-0.3,0.5-0.8,0.5-1.4
					c0-0.6-0.2-1.2-0.5-1.5c-0.3-0.4-0.8-0.6-1.4-0.6h-2.2V23.8z"/>
				<path class="st0" d="M61.5,28.4h-4.6L56.1,31h-3.5l5.1-13.8h3.1L65.9,31h-3.6L61.5,28.4z M57.7,25.9h3l-1.5-4.8L57.7,25.9z"/>
				<path class="st0" d="M72,26.1h-1.8V31h-3.3V17.2h5.4c1.6,0,2.9,0.4,3.8,1.1c0.9,0.7,1.4,1.7,1.4,3.1c0,1-0.2,1.8-0.6,2.4
					c-0.4,0.6-1,1.1-1.8,1.5l2.9,5.6V31h-3.6L72,26.1z M70.2,23.6h2.1c0.6,0,1.1-0.2,1.4-0.5c0.3-0.3,0.5-0.8,0.5-1.4
					c0-0.6-0.2-1.1-0.5-1.4c-0.3-0.3-0.8-0.5-1.4-0.5h-2.1V23.6z"/>
				<path class="st0" d="M90.6,26.3c0,1-0.3,1.8-0.8,2.5c-0.5,0.7-1.1,1.3-2,1.7C87,31,86,31.2,85,31.2c-1.8,0-3.2-0.6-4.3-1.8
					c-1-1.2-1.6-2.8-1.6-5v-0.7c0-1.3,0.2-2.5,0.7-3.5c0.5-1,1.1-1.8,2-2.3c0.9-0.6,1.9-0.8,3.1-0.8c1.7,0,3,0.4,4,1.3
					c1,0.9,1.6,2.1,1.7,3.6h-3.3c0-0.8-0.2-1.4-0.6-1.8c-0.4-0.4-1-0.5-1.8-0.5c-0.8,0-1.4,0.3-1.8,0.9c-0.4,0.6-0.6,1.6-0.6,3v1
					c0,1.5,0.2,2.5,0.6,3.2c0.4,0.6,1,0.9,1.9,0.9c0.8,0,1.3-0.2,1.8-0.5c0.4-0.4,0.6-0.9,0.6-1.7H90.6z"/>
				<path class="st0" d="M100.8,25.1h-5.2v3.3h6.2V31h-9.5V17.2h9.5v2.6h-6.2v2.9h5.2V25.1z"/>
				<path class="st0" d="M106.4,28.4h5.8V31h-9.1V17.2h3.3V28.4z"/>
			</g>
			<g>
				<path class="st1" d="M113.5,31V17.2h4.4c1.2,0,2.3,0.3,3.3,0.8c1,0.6,1.7,1.3,2.3,2.3c0.5,1,0.8,2.1,0.8,3.4v0.6
					c0,1.3-0.3,2.4-0.8,3.4c-0.5,1-1.3,1.8-2.3,2.3c-1,0.6-2,0.9-3.2,0.9H113.5z M116.8,19.8v8.7h1.2c1,0,1.7-0.3,2.2-1
					c0.5-0.7,0.8-1.7,0.8-3v-0.6c0-1.3-0.3-2.3-0.8-3c-0.5-0.7-1.3-1-2.2-1H116.8z"/>
				<path class="st1" d="M133.6,28.4h-4.6l-0.8,2.6h-3.5l5.1-13.8h3.1L138,31h-3.6L133.6,28.4z M129.9,25.8h3l-1.5-4.8L129.9,25.8z"
					/>
				<path class="st1" d="M142.5,31h-3.3V17.2h3.3V31z"/>
				<path class="st1" d="M148.2,28.4h5.8V31h-9.1V17.2h3.3V28.4z"/>
				<path class="st1" d="M157.7,23.2l2.5-6h3.6l-4.4,8.8V31h-3.4V26l-4.4-8.8h3.6L157.7,23.2z"/>
			</g>
		</g>
	</g>
</g>
</svg>
